<?xml version="1.0" standalone="no"?>
<!DOCTYPE svg PUBLIC "-//W3C//DTD SVG 20010904//EN"
 "http://www.w3.org/TR/2001/REC-SVG-20010904/DTD/svg10.dtd">
<svg version="1.0" xmlns="http://www.w3.org/2000/svg"
 width="700.000000pt" height="700.000000pt" viewBox="0 0 700.000000 700.000000"
 preserveAspectRatio="xMidYMid meet">
<metadata>
Created by potrace 1.14, written by Peter Selinger 2001-2017
</metadata>
<g transform="translate(0.000000,700.000000) scale(0.100000,-0.100000)"
fill="#000000" stroke="none">
<path d="M978 4102 l-27 -3 -3 -163 c-2 -90 -1 -176 2 -191 l5 -28 275 0 275
0 0 -406 0 -406 233 -2 232 -2 0 408 0 408 355 0 355 1 0 -57 c0 -31 1 -214 0
-407 l0 -350 233 0 232 1 2 330 c2 438 1 399 16 383 6 -7 53 -60 102 -117 50
-56 99 -113 110 -126 11 -12 45 -51 75 -86 58 -66 131 -150 140 -159 3 -3 37
-41 75 -85 39 -44 83 -94 98 -111 l28 -31 262 1 262 1 0 406 0 407 357 -1 358
0 0 -409 0 -408 234 0 234 0 1 388 c0 213 0 397 0 408 1 21 3 21 271 21 148 0
272 2 276 5 7 8 9 366 2 374 -6 5 -5021 12 -5070 6z m2870 -503 c-1 -65 -3
-119 -7 -119 -3 0 -37 39 -76 86 -38 47 -80 98 -92 113 -13 14 -23 29 -23 33
0 5 45 8 99 7 l99 -1 0 -119z"/>
</g>
</svg>
